<!-- Generated by IcoMoon.io -->
<svg version="1.1" xmlns="http://www.w3.org/2000/svg" width="9" height="32" viewBox="0 0 9 32">
<title>uniE242</title>
<path d="M8.704 51.072c-0.192 0.416-0.416 0.544-0.64 0.544-0.448 0-0.704-0.416-0.704-0.832 0-0.096 0-0.16 0.032-0.288 0.16-0.96 0.256-1.92 0.256-2.848 0-1.664-0.288-3.232-1.024-4.768-2.208-4.48-4.48-4.544-6.464-4.608h-0.16v-12.416c0-0.224 0.352-0.32 0.544-0.32s0.576 0.064 0.64 0.416c0.544 3.392 2.336 3.904 4.064 5.76 2.304 2.496 3.136 3.392 3.456 5.568 0.064 0.384 0.096 0.736 0.096 1.152 0 1.952-0.704 3.872-0.8 4.064-0.032 0.096-0.032 0.16-0.032 0.224 0 0.128 0.032 0.192 0.032 0.288 0.576 1.184 0.928 2.496 0.928 3.84v0.704c0 1.536-0.096 3.36-0.224 3.52zM6.688 40.288c0.064 0.096 0.128 0.128 0.224 0.128 0.16 0 0.384-0.096 0.416-0.192 0.16-0.256 0.16-0.576 0.224-0.832 0.032-0.224 0.032-0.416 0.032-0.64 0-1.024-0.288-2.016-0.864-2.848-1.056-1.568-2.784-3.36-4.736-3.36h-0.256c-0.256 0-0.448 0.192-0.448 0.32 0 0.032 0 0.064 0.032 0.096 0.672 2.624 2.144 3.392 3.648 5.12 0.672 0.768 1.216 1.408 1.728 2.208z"></path>
</svg>
