<!-- Generated by IcoMoon.io -->
<svg version="1.1" xmlns="http://www.w3.org/2000/svg" width="8" height="32" viewBox="0 0 8 32">
<title>uniE4E6</title>
<path d="M4.288 22.176v0.32c1.056 0 2.656-1.92 2.88-2.112 0.192-0.128 0.288-0.128 0.352-0.128 0.064 0.032 0.384 0.192 0.384 0.512-0.032 0.16-0.192 0.672-0.32 1.248 0 0-3.136 11.232-3.232 11.296-0.32 0.256-0.768 0.32-1.12 0.32-0.192 0-0.928-0.032-0.928-0.416 0.576-2.112 2.88-8.48 2.976-8.96 0.032-0.128 0.032-0.256 0.032-0.352 0-0.16-0.032-0.288-0.16-0.288-0.032 0-0.096 0-0.16 0.032-0.416 0.224-0.704 0.352-1.152 0.48-0.352 0.128-0.8 0.224-1.248 0.224-0.608 0-1.216-0.192-1.728-0.544-0.48-0.384-0.864-0.96-0.864-1.632 0-1.184 0.96-2.144 2.144-2.144s2.144 0.96 2.144 2.144z"></path>
</svg>
