<!-- Generated by IcoMoon.io -->
<svg version="1.1" xmlns="http://www.w3.org/2000/svg" width="9" height="32" viewBox="0 0 9 32">
<title>uniE4E5</title>
<path d="M2.496 26.816l-1.568-1.92s-0.32-0.32-0.32-0.768c0-0.256 0.128-0.608 0.448-0.928 1.44-1.504 1.92-2.88 1.92-4.064 0-2.304-1.824-3.936-1.952-4.288-0.096-0.192-0.128-0.352-0.128-0.512 0-0.448 0.32-0.672 0.64-0.672 0.192 0 0.416 0.096 0.576 0.256 0.544 0.544 5.28 6.176 5.28 6.176s0.128 0.288 0.128 0.608c0 0.16-0.032 0.32-0.128 0.48-0.832 1.312-1.984 2.848-2.112 4.704v0.096l-0.032 0.224v0.096c0 1.792 0.992 2.976 2.208 4.448 0.352 0.384 1.184 1.44 1.184 1.824 0 0.096-0.064 0.128-0.16 0.128-0.064 0-0.128 0-0.256-0.032l-0.032-0.032c-0.544-0.192-1.6-0.544-2.528-0.544-1.344 0-2.016 1.024-2.016 2.336 0 0.288 0.032 0.576 0.128 0.832 0.064 0.288 0.416 1.152 0.832 1.152 0.256 0.224 0.512 0.48 0.512 0.768 0 0.064-0.032 0.128-0.064 0.224-0.032 0.128-0.256 0.192-0.48 0.192-0.256 0-0.576-0.096-0.832-0.288-2.336-1.792-3.712-3.36-3.712-4.96 0-1.568 1.088-3.072 2.752-3.072l0.256 0.096h0.128c0.128 0.032 0.384 0.096 0.512 0.096 0.16 0 0.288-0.032 0.352-0.16 0.032-0.032 0.032-0.096 0.032-0.128 0-0.064-0.128-0.32-0.192-0.448-0.416-0.672-0.864-1.28-1.376-1.92z"></path>
</svg>
