<!-- Generated by IcoMoon.io -->
<svg version="1.1" xmlns="http://www.w3.org/2000/svg" width="19" height="32" viewBox="0 0 19 32">
<title>uniE1D9</title>
<path d="M17.664 15.136c0.576 1.184 0.928 2.496 0.928 3.84v0.704c0 1.536-0.096 3.36-0.224 3.52-0.192 0.416-0.416 0.544-0.64 0.544-0.448 0-0.704-0.416-0.704-0.832 0-0.096 0-0.16 0.032-0.288 0.16-0.96 0.256-1.92 0.256-2.848 0-1.664-0.288-3.232-1.024-4.768-1.92-3.904-3.904-4.448-5.664-4.576v13.568c0 3.040-3.936 6.016-7.136 6.016-1.952 0-3.488-1.12-3.488-3.008 0-3.104 3.168-6.016 7.104-6.016 1.056 0 1.952 0.288 2.56 0.832v-24.128s0.352-0.032 0.544-0.032 0.576 0.064 0.64 0.416c0.544 3.392 2.336 3.904 4.064 5.76 2.304 2.496 3.136 3.392 3.456 5.568 0.064 0.384 0.096 0.736 0.096 1.152 0 1.952-0.704 3.872-0.8 4.064-0.032 0.096-0.032 0.16-0.032 0.224 0 0.128 0.032 0.192 0.032 0.288zM17.216 11.52c0.032-0.224 0.032-0.416 0.032-0.64 0-1.024-0.288-2.016-0.864-2.848-1.056-1.568-2.784-3.36-4.736-3.36h-0.256c-0.256 0-0.448 0.192-0.448 0.32 0 0.032 0 0.064 0.032 0.096 0.672 2.624 2.144 3.392 3.648 5.12 0.672 0.768 1.216 1.408 1.728 2.208 0.064 0.096 0.128 0.128 0.224 0.128 0.16 0 0.384-0.096 0.416-0.192 0.16-0.256 0.16-0.576 0.224-0.832z"></path>
</svg>
