<!-- Generated by IcoMoon.io -->
<svg version="1.1" xmlns="http://www.w3.org/2000/svg" width="8" height="32" viewBox="0 0 8 32">
<title>uniE246</title>
<path d="M8.32 47.136c0 0.288 0.032 0.576 0.032 0.896 0 1.376-0.128 2.848-0.224 3.040-0.224 0.352-0.448 0.512-0.64 0.512-0.064 0-0.128-0.032-0.192-0.064-0.224-0.096-0.416-0.384-0.416-0.768 0-0.064 0.032-0.128 0.032-0.224 0.16-0.928 0.256-1.824 0.256-2.72 0-1.536-0.288-2.976-0.992-4.384-2.048-4.16-4.16-4.224-6.016-4.288h-0.16v-24.256c0-0.224 0.224-0.384 0.448-0.384 0.256 0 0.544 0.32 0.576 0.608 0.544 3.2 2.272 3.712 3.872 5.44 2.144 2.336 2.88 3.2 3.232 5.152 0.032 0.288 0.064 0.576 0.064 0.864 0 1.344-0.416 2.752-0.704 3.552 0.48 0.864 0.704 1.856 0.704 2.816 0 1.248-0.352 2.56-0.64 3.392 0.448 0.928 0.672 1.952 0.672 2.976 0 1.824-0.672 3.584-0.736 3.808-0.032 0.064-0.032 0.128-0.032 0.192 0 0.096 0 0.16 0.032 0.224 0.48 1.152 0.768 2.368 0.832 3.616zM6.656 25.056c-1.76-2.944-3.584-3.744-5.408-3.744 0.032 0.032 0.032 0.096 0.032 0.128 0.544 3.2 2.016 3.712 3.616 5.44 0.736 0.8 1.28 1.408 1.728 1.952l0.416-1.568c0.032-0.224 0.096-0.416 0.096-0.672 0-0.416-0.128-0.896-0.48-1.536zM6.656 31.392c-1.76-2.976-3.648-3.744-5.408-3.744 0.512 3.104 2.080 3.648 3.648 5.376 0.736 0.8 1.312 1.408 1.76 1.984 0.16-0.544 0.32-1.088 0.384-1.408 0.032-0.224 0.096-0.416 0.096-0.672 0-0.416-0.128-0.896-0.48-1.536zM7.008 40.192c0.032-0.256 0.064-0.512 0.064-0.768 0-2.592-2.88-5.664-5.44-5.664-0.224 0-0.48 0.192-0.416 0.416 0.64 2.464 2.048 3.136 3.424 4.768l0.16 0.16c0.544 0.64 0.992 1.184 1.472 1.888 0.032 0.096 0.128 0.128 0.224 0.128 0.16 0 0.32-0.096 0.352-0.192 0.096-0.224 0.096-0.48 0.16-0.736z"></path>
</svg>
