<!-- Generated by IcoMoon.io -->
<svg version="1.1" xmlns="http://www.w3.org/2000/svg" width="18" height="32" viewBox="0 0 18 32">
<title>uniE1D7</title>
<path d="M14.432 6.592c2.016 3.2 3.68 6.976 3.68 10.976 0 2.496-0.832 5.536-0.832 5.536-0.16 0.544-0.544 0.672-0.832 0.64l-0.064-0.032c-0.192-0.128-0.512-0.416-0.512-0.928 0-0.128 0.032-0.288 0.096-0.48 0.544-1.44 0.768-2.944 0.768-4.384 0-1.888-0.288-3.712-0.768-4.8-0.992-2.336-3.36-5.856-5.344-7.072v17.952c0 3.040-3.936 6.016-7.136 6.016-1.952 0-3.488-1.12-3.488-3.008 0-3.104 3.168-6.016 7.104-6.016 1.056 0 1.952 0.288 2.56 0.832v-23.872c0.032-0.224 0.16-0.288 0.32-0.288 0.608 0 0.864 0.192 0.96 0.704 0.512 3.072 1.856 5.696 3.488 8.224z"></path>
</svg>
